<?xml version="1.0" encoding="iso-8859-1"?>
<!-- Generator: Adobe Illustrator 16.0.0, SVG Export Plug-In . SVG Version: 6.00 Build 0)  -->
<!DOCTYPE svg PUBLIC "-//W3C//DTD SVG 1.1//EN" "http://www.w3.org/Graphics/SVG/1.1/DTD/svg11.dtd">
<svg version="1.1" id="Capa_1" xmlns="http://www.w3.org/2000/svg" xmlns:xlink="http://www.w3.org/1999/xlink" x="0px" y="0px"
	 width="610.886px" height="610.886px" viewBox="0 0 610.886 610.886" style="enable-background:new 0 0 610.886 610.886;"
	 xml:space="preserve">
<g>
	<g>
		<path d="M292.553,212c34.497,12.981,78.766,19.57,114.879,22.921c28.782-16.414,53.406-34.602,74.448-53.502
			c-46.731-8.186-78.021-34.741-78.021-34.741c38.757,2.764,85.891-4.375,122.338-11.891C590.267,55.577,603.621,0,603.621,0
			S474.809,19.938,367.7,63.126C126.796,160.253,7.265,335.964,7.265,335.964l81.205-14.765c0,0,3.098-27.229,52.914-61.711
			c56.433-39.058,82.969,41.023,142.304,25.283c23.485-6.23,45.235-13.56,65.437-21.721C312.07,241.864,292.553,212,292.553,212z"/>
		<path d="M292.945,452.507h-90.246v-29.285h24.805c12.708,0,23.007-10.304,23.007-23.008c0-12.708-10.304-23.007-23.007-23.007
			H101.996c-12.709,0-23.007,10.304-23.007,23.007c0,12.709,10.303,23.008,23.007,23.008h24.203v29.285H35.953
			c-15.845,0-28.688,12.843-28.688,28.688v101.004c0,15.845,12.842,28.688,28.688,28.688h13.746h229.5h13.746
			c15.845,0,28.688-12.843,28.688-28.688V481.194C321.632,465.35,308.79,452.507,292.945,452.507z"/>
	</g>
</g>
<g>
</g>
<g>
</g>
<g>
</g>
<g>
</g>
<g>
</g>
<g>
</g>
<g>
</g>
<g>
</g>
<g>
</g>
<g>
</g>
<g>
</g>
<g>
</g>
<g>
</g>
<g>
</g>
<g>
</g>
</svg>
